<svg width="28" height="28" viewBox="0 0 28 28" fill="none" xmlns="http://www.w3.org/2000/svg">
<path d="M24.8397 8.519C24.7118 8.03758 24.4598 7.5982 24.1087 7.24486C23.7576 6.89152 23.3198 6.63663 22.8392 6.50572C21.0748 6.02972 13.9998 6.02972 13.9998 6.02972C13.9998 6.02972 6.92473 6.02972 5.16035 6.50572C4.67975 6.63663 4.24199 6.89152 3.8909 7.24486C3.53982 7.5982 3.28773 8.03758 3.1599 8.519C2.68701 10.2947 2.68701 14 2.68701 14C2.68701 14 2.68701 17.7053 3.1599 19.4814C3.28773 19.9628 3.53982 20.4022 3.8909 20.7555C4.24199 21.1089 4.67975 21.3638 5.16035 21.4947C6.92473 21.9703 13.9998 21.9703 13.9998 21.9703C13.9998 21.9703 21.0748 21.9703 22.8392 21.4947C23.3198 21.3638 23.7576 21.1089 24.1087 20.7555C24.4598 20.4022 24.7118 19.9628 24.8397 19.4814C25.3126 17.7053 25.3126 14 25.3126 14C25.3126 14 25.3126 10.2947 24.8397 8.519Z" fill="#EA5A47"/>
<path d="M11.686 17.3639L17.5995 14L11.686 10.6361V17.3639Z" fill="white"/>
<path d="M24.8397 8.519C24.7118 8.03758 24.4598 7.5982 24.1087 7.24486C23.7576 6.89152 23.3198 6.63663 22.8392 6.50572C21.0748 6.02972 13.9998 6.02972 13.9998 6.02972C13.9998 6.02972 6.92473 6.02972 5.16035 6.50572C4.67975 6.63663 4.24199 6.89152 3.8909 7.24486C3.53982 7.5982 3.28773 8.03758 3.1599 8.519C2.68701 10.2947 2.68701 14 2.68701 14C2.68701 14 2.68701 17.7053 3.1599 19.4814C3.28773 19.9628 3.53982 20.4022 3.8909 20.7555C4.24199 21.1089 4.67975 21.3638 5.16035 21.4947C6.92473 21.9703 13.9998 21.9703 13.9998 21.9703C13.9998 21.9703 21.0748 21.9703 22.8392 21.4947C23.3198 21.3638 23.7576 21.1089 24.1087 20.7555C24.4598 20.4022 24.7118 19.9628 24.8397 19.4814C25.3126 17.7053 25.3126 14 25.3126 14C25.3126 14 25.3126 10.2947 24.8397 8.519Z" stroke="black" stroke-width="0.5" stroke-miterlimit="10"/>
<path d="M11.686 17.3639L17.5995 14L11.686 10.6361V17.3639Z" stroke="black" stroke-width="0.5" stroke-miterlimit="10" stroke-linecap="round" stroke-linejoin="round"/>
</svg>
